<svg width="6" height="9" viewBox="0 0 6 9" fill="none" xmlns="http://www.w3.org/2000/svg">
<path d="M0.853516 4.5C0.853516 4.5625 0.884766 4.63281 0.93164 4.67969L4.57227 8.32031C4.61914 8.36719 4.68945 8.39844 4.75195 8.39844C4.81445 8.39844 4.88477 8.36719 4.93164 8.32031L5.32227 7.92969C5.36914 7.88281 5.40039 7.8125 5.40039 7.75C5.40039 7.6875 5.36914 7.61719 5.32227 7.57031L2.25195 4.5L5.32227 1.42969C5.36914 1.38281 5.40039 1.3125 5.40039 1.25C5.40039 1.17969 5.36914 1.11719 5.32227 1.07031L4.93164 0.679688C4.88477 0.632813 4.81445 0.601563 4.75195 0.601563C4.68945 0.601563 4.61914 0.632813 4.57227 0.679688L0.93164 4.32031C0.884766 4.36719 0.853516 4.4375 0.853516 4.5Z" fill="white"/>
</svg>
