<svg width="18" height="17" viewBox="0 0 18 17" fill="none" xmlns="http://www.w3.org/2000/svg">
<path d="M16.7143 5.55804C16.7143 7.39621 14.856 9.10379 14.8259 9.13393L9 14.7489L3.16406 9.12388C3.14397 9.10379 1.28571 7.39621 1.28571 5.55804C1.28571 2.73549 3.1942 2.14286 4.80134 2.14286C6.29799 2.14286 7.98549 3.76004 8.50781 4.38281C8.74888 4.67411 9.25112 4.67411 9.49219 4.38281C10.0145 3.76004 11.702 2.14286 13.1987 2.14286C14.8058 2.14286 16.7143 2.73549 16.7143 5.55804ZM18 5.55804C18 2.61495 16.202 0.857142 13.1987 0.857142C11.4408 0.857142 9.79353 2.2433 9 3.02679C8.20647 2.2433 6.55915 0.857142 4.80134 0.857142C1.79799 0.857142 0 2.61495 0 5.55804C0 7.96875 2.20982 9.98772 2.29018 10.058L8.55804 16.1049C8.67857 16.2254 8.83929 16.2857 9 16.2857C9.16071 16.2857 9.32143 16.2254 9.44196 16.1049L15.6998 10.0781C15.7902 9.98772 18 7.96875 18 5.55804Z" fill="#333333"/>
</svg>
