<svg width="20" height="12" viewBox="0 0 20 12" fill="none" xmlns="http://www.w3.org/2000/svg">
<path d="M12.8571 11.6786C12.8571 11.6083 12.827 11.5279 12.7868 11.4676L11.1797 9.53906C11.1194 9.46875 11.019 9.42857 10.9286 9.42857H5.14286V5.57143H7.07143C7.42299 5.57143 7.71429 5.28013 7.71429 4.92857C7.71429 4.7779 7.66406 4.62723 7.56362 4.51674L4.34933 0.659598C4.22879 0.518973 4.04799 0.438616 3.85714 0.438616C3.66629 0.438616 3.48549 0.518973 3.36496 0.659598L0.15067 4.51674C0.0502232 4.62723 0 4.7779 0 4.92857C0 5.28013 0.291295 5.57143 0.642857 5.57143H2.57143V9.75V11.3571C2.57143 11.6083 2.52121 12 2.89286 12H12.5357C12.7065 12 12.8571 11.8493 12.8571 11.6786ZM19.2857 7.5C19.2857 7.14844 18.9944 6.85714 18.6429 6.85714H16.7143V2.67857V1.07143C16.7143 0.820312 16.7645 0.428571 16.3929 0.428571H6.75C6.57924 0.428571 6.42857 0.579241 6.42857 0.75C6.42857 0.820312 6.45871 0.900669 6.49888 0.950892L8.10603 2.87946C8.16629 2.95982 8.26674 3 8.35714 3H14.1429V6.85714H12.2143C11.8627 6.85714 11.5714 7.14844 11.5714 7.5C11.5714 7.65067 11.6217 7.80134 11.7221 7.91183L14.9364 11.769C15.0569 11.9096 15.2377 12 15.4286 12C15.6194 12 15.8002 11.9096 15.9208 11.769L19.135 7.91183C19.2355 7.80134 19.2857 7.65067 19.2857 7.5Z" fill="white"/>
</svg>
