<svg width="6" height="9" viewBox="0 0 6 9" fill="none" xmlns="http://www.w3.org/2000/svg">
<path d="M5.14648 4.5C5.14648 4.4375 5.11523 4.36719 5.06836 4.32031L1.42773 0.679687C1.38086 0.632812 1.31055 0.601562 1.24805 0.601562C1.18555 0.601562 1.11523 0.632812 1.06836 0.679687L0.677734 1.07031C0.630859 1.11719 0.599609 1.1875 0.599609 1.25C0.599609 1.3125 0.630859 1.38281 0.677734 1.42969L3.74805 4.5L0.677734 7.57031C0.630859 7.61719 0.599609 7.6875 0.599609 7.75C0.599609 7.82031 0.630859 7.88281 0.677734 7.92969L1.06836 8.32031C1.11523 8.36719 1.18555 8.39844 1.24805 8.39844C1.31055 8.39844 1.38086 8.36719 1.42773 8.32031L5.06836 4.67969C5.11523 4.63281 5.14648 4.5625 5.14648 4.5Z" fill="white"/>
</svg>
