<svg width="32" height="40" viewBox="0 0 32 40" fill="none" xmlns="http://www.w3.org/2000/svg">
<path fill-rule="evenodd" clip-rule="evenodd" d="M25.7776 37.1673C25.7776 37.1673 26.2221 34.8637 23.4813 32.0474C26.1479 25.5828 26.5183 19.6957 26.5183 19.6957C26.5183 19.6957 31.9997 20.7834 31.9997 25.4551C31.9997 33.4558 25.7776 37.1673 25.7776 37.1673ZM10.6664 34.3591C10.6664 34.3591 6.99549 24.1797 6.99549 19.955C6.99549 18.0552 7.24259 16.3647 7.62801 14.8306H24.3557C24.7444 16.3662 24.9934 18.0577 24.9934 19.9569C24.9934 24.1166 21.3332 34.3591 21.3332 34.3591H10.6664ZM15.9877 17.158C14.1057 17.158 12.5802 18.4753 12.5802 20.102C12.5802 21.7279 14.1057 23.0466 15.9877 23.0466C17.8694 23.0466 19.3949 21.7279 19.3949 20.102C19.3949 18.4753 17.8694 17.158 15.9877 17.158ZM15.2539 4.00852V-0.000370979H16.5804V3.90609C18.0963 4.86022 22.1993 7.89202 24.0543 13.7348H7.92659C9.71908 8.05392 13.6237 5.05441 15.2539 4.00852ZM6.22209 37.1673C6.22209 37.1673 -0.000169992 33.4558 -0.000169992 25.4551C-0.000169992 20.7834 5.48122 19.6957 5.48122 19.6957C5.48122 19.6957 5.85166 25.5828 8.51824 32.0474C5.77749 34.8637 6.22209 37.1673 6.22209 37.1673ZM18.2431 37.7588L17.1322 36.7991L15.9468 39.9993L14.5395 36.7991L13.5764 38.4626L12.169 35.4549H19.7988L18.2431 37.7588Z" fill="#0041f5"/>
</svg>
