<svg width="85" height="13" viewBox="0 0 85 13" fill="none" xmlns="http://www.w3.org/2000/svg">
<path d="M13 5.05469C13 4.82031 12.75 4.72656 12.5625 4.69531L8.64062 4.125L6.88281 0.570312C6.8125 0.421875 6.67969 0.25 6.5 0.25C6.32031 0.25 6.1875 0.421875 6.11719 0.570312L4.35938 4.125L0.4375 4.69531C0.242188 4.72656 0 4.82031 0 5.05469C0 5.19531 0.101563 5.32812 0.195313 5.42969L3.03906 8.19531L2.36719 12.1016C2.35938 12.1563 2.35156 12.2031 2.35156 12.2578C2.35156 12.4609 2.45313 12.6484 2.67969 12.6484C2.78906 12.6484 2.89063 12.6094 2.99219 12.5547L6.5 10.7109L10.0078 12.5547C10.1016 12.6094 10.2109 12.6484 10.3203 12.6484C10.5469 12.6484 10.6406 12.4609 10.6406 12.2578C10.6406 12.2031 10.6406 12.1563 10.6328 12.1016L9.96094 8.19531L12.7969 5.42969C12.8984 5.32812 13 5.19531 13 5.05469ZM30.902 5.05469C30.902 4.82031 30.652 4.72656 30.4645 4.69531L26.5426 4.125L24.7848 0.570312C24.7145 0.421875 24.5816 0.25 24.402 0.25C24.2223 0.25 24.0895 0.421875 24.0191 0.570312L22.2613 4.125L18.3395 4.69531C18.1441 4.72656 17.902 4.82031 17.902 5.05469C17.902 5.19531 18.0035 5.32812 18.0973 5.42969L20.941 8.19531L20.2691 12.1016C20.2613 12.1563 20.2535 12.2031 20.2535 12.2578C20.2535 12.4609 20.3551 12.6484 20.5816 12.6484C20.691 12.6484 20.7926 12.6094 20.8941 12.5547L24.402 10.7109L27.9098 12.5547C28.0035 12.6094 28.1129 12.6484 28.2223 12.6484C28.4488 12.6484 28.5426 12.4609 28.5426 12.2578C28.5426 12.2031 28.5426 12.1563 28.5348 12.1016L27.8629 8.19531L30.6988 5.42969C30.8004 5.32812 30.902 5.19531 30.902 5.05469ZM48.8039 5.05469C48.8039 4.82031 48.5539 4.72656 48.3664 4.69531L44.4445 4.125L42.6867 0.570312C42.6164 0.421875 42.4836 0.25 42.3039 0.25C42.1242 0.25 41.9914 0.421875 41.9211 0.570312L40.1633 4.125L36.2414 4.69531C36.0461 4.72656 35.8039 4.82031 35.8039 5.05469C35.8039 5.19531 35.9055 5.32812 35.9992 5.42969L38.843 8.19531L38.1711 12.1016C38.1633 12.1563 38.1555 12.2031 38.1555 12.2578C38.1555 12.4609 38.257 12.6484 38.4836 12.6484C38.593 12.6484 38.6945 12.6094 38.7961 12.5547L42.3039 10.7109L45.8117 12.5547C45.9055 12.6094 46.0148 12.6484 46.1242 12.6484C46.3508 12.6484 46.4445 12.4609 46.4445 12.2578C46.4445 12.2031 46.4445 12.1563 46.4367 12.1016L45.7648 8.19531L48.6008 5.42969C48.7023 5.32812 48.8039 5.19531 48.8039 5.05469ZM66.7059 5.05469C66.7059 4.82031 66.4559 4.72656 66.2684 4.69531L62.3465 4.125L60.5887 0.570312C60.5184 0.421875 60.3855 0.25 60.2059 0.25C60.0262 0.25 59.8934 0.421875 59.823 0.570312L58.0652 4.125L54.1434 4.69531C53.948 4.72656 53.7059 4.82031 53.7059 5.05469C53.7059 5.19531 53.8074 5.32812 53.9012 5.42969L56.7449 8.19531L56.073 12.1016C56.0652 12.1563 56.0574 12.2031 56.0574 12.2578C56.0574 12.4609 56.159 12.6484 56.3855 12.6484C56.4949 12.6484 56.5965 12.6094 56.698 12.5547L60.2059 10.7109L63.7137 12.5547C63.8074 12.6094 63.9168 12.6484 64.0262 12.6484C64.2527 12.6484 64.3465 12.4609 64.3465 12.2578C64.3465 12.2031 64.3465 12.1563 64.3387 12.1016L63.6668 8.19531L66.5027 5.42969C66.6043 5.32812 66.7059 5.19531 66.7059 5.05469ZM80.4906 7.84375L81.0531 11.1328L78.1078 9.57812L75.1547 11.1328L75.725 7.84375L73.3344 5.52344L76.6312 5.03906L78.1078 2.05469L79.5844 5.03906L82.8812 5.52344L80.4906 7.84375ZM84.6078 5.05469C84.6078 4.82031 84.3578 4.72656 84.1703 4.69531L80.2484 4.125L78.4906 0.570312C78.4203 0.421875 78.2875 0.25 78.1078 0.25C77.9281 0.25 77.7953 0.421875 77.725 0.570312L75.9672 4.125L72.0453 4.69531C71.85 4.72656 71.6078 4.82031 71.6078 5.05469C71.6078 5.19531 71.7094 5.32812 71.8031 5.42969L74.6469 8.19531L73.975 12.1016C73.9672 12.1563 73.9594 12.2031 73.9594 12.2578C73.9594 12.4609 74.0609 12.6484 74.2875 12.6484C74.3969 12.6484 74.4984 12.6094 74.6 12.5547L78.1078 10.7109L81.6156 12.5547C81.7094 12.6094 81.8187 12.6484 81.9281 12.6484C82.1547 12.6484 82.2484 12.4688 82.2484 12.2578C82.2484 12.2031 82.2484 12.1563 82.2406 12.1016L81.5687 8.19531L84.4047 5.42969C84.5062 5.32812 84.6078 5.19531 84.6078 5.05469Z" fill="#FF9600"/>
</svg>
